<svg xmlns="http://www.w3.org/2000/svg" viewBox="0 0 1200 380" width="1200" height="380" role="img" aria-label="Engineering DNA radar showing competency domains: AI/ML, Full-Stack, Databases, Cybersecurity, Data Science, and Software Engineering, flanked by a DNA double-helix motif.">
<defs>
<linearGradient id="e_panel" x1="0" y1="0" x2="1" y2="1"><stop offset="0" stop-color="#0a0e1a"/><stop offset="1" stop-color="#06080f"/></linearGradient>
<linearGradient id="e_border" x1="0" y1="0" x2="1" y2="1"><stop offset="0" stop-color="#06b6d4"/><stop offset="0.5" stop-color="#3b82f6"/><stop offset="1" stop-color="#8b5cf6"/></linearGradient>
<linearGradient id="e_poly" x1="0" y1="0" x2="1" y2="1"><stop offset="0" stop-color="#22d3ee" stop-opacity="0.5"/><stop offset="1" stop-color="#a855f7" stop-opacity="0.5"/></linearGradient>
<radialGradient id="e_glow" cx="0.5" cy="0.5" r="0.5"><stop offset="0" stop-color="#123a52"/><stop offset="1" stop-color="#06080f"/></radialGradient>
</defs>
<rect x="4" y="4" width="1192" height="372" rx="16" fill="url(#e_border)"/>
<rect x="6" y="6" width="1188" height="368" rx="14" fill="url(#e_panel)"/>
<circle cx="600" cy="188" r="185" fill="url(#e_glow)" opacity="0.5"/>
<g font-family="'JetBrains Mono',ui-monospace,Consolas,monospace"><circle cx="30" cy="30" r="4" fill="#22c55e"><animate attributeName="opacity" values="1;0.3;1" dur="2s" repeatCount="indefinite"/></circle><text x="44" y="35" font-size="13" fill="#5ad1e6">// dna.engineering — competency domains</text></g>
<g fill="none" stroke="#1a2c47" stroke-width="1">
<polygon points="600.0,141.8 640.0,164.9 640.0,211.1 600.0,234.2 560.0,211.1 560.0,164.9"/>
<polygon points="600.0,96.9 678.9,142.4 678.9,233.6 600.0,279.1 521.1,233.6 521.1,142.4"/>
<polygon points="600.0,52.0 717.8,120.0 717.8,256.0 600.0,324.0 482.2,256.0 482.2,120.0"/>
<line x1="600" y1="188" x2="600.0" y2="52.0" stroke="#16273f"/>
<line x1="600" y1="188" x2="717.8" y2="120.0" stroke="#16273f"/>
<line x1="600" y1="188" x2="717.8" y2="256.0" stroke="#16273f"/>
<line x1="600" y1="188" x2="600.0" y2="324.0" stroke="#16273f"/>
<line x1="600" y1="188" x2="482.2" y2="256.0" stroke="#16273f"/>
<line x1="600" y1="188" x2="482.2" y2="120.0" stroke="#16273f"/>
</g>
<polygon points="600.0,62.9 701.3,129.5 691.9,241.0 600.0,310.4 503.4,243.8 498.7,129.5" fill="url(#e_poly)" stroke="#22d3ee" stroke-width="2">
<animate attributeName="stroke" values="#22d3ee;#a855f7;#22d3ee" dur="6s" repeatCount="indefinite"/>
<animate attributeName="fill-opacity" values="0.75;1;0.75" dur="4s" repeatCount="indefinite"/>
</polygon>
<circle cx="600.0" cy="62.9" r="4.5" fill="#e0fbff"/>
<circle cx="701.3" cy="129.5" r="4.5" fill="#e0fbff"/>
<circle cx="691.9" cy="241.0" r="4.5" fill="#e0fbff"/>
<circle cx="600.0" cy="310.4" r="4.5" fill="#e0fbff"/>
<circle cx="503.4" cy="243.8" r="4.5" fill="#e0fbff"/>
<circle cx="498.7" cy="129.5" r="4.5" fill="#e0fbff"/>
<circle cx="600" cy="188" r="4" fill="#22d3ee"/>
<g font-family="'JetBrains Mono','Fira Code',ui-monospace,monospace" font-size="13.5" font-weight="600" fill="#cbd5e1">
<text x="600.0" y="20.0" text-anchor="middle">AI / ML</text>
<text x="742.0" y="110.0" text-anchor="start">Full-Stack</text>
<text x="742.0" y="274.0" text-anchor="start">Databases</text>
<text x="600.0" y="367.0" text-anchor="middle">Cybersecurity</text>
<text x="458.0" y="274.0" text-anchor="end">Data Science</text>
<text x="458.0" y="110.0" text-anchor="end">Software Eng</text>
</g>
<path d="M120.0,52.0 L127.7,57.2 L134.5,62.3 L139.9,67.5 L143.1,72.7 L144.0,77.9 L142.3,83.0 L138.3,88.2 L132.4,93.4 L125.2,98.6 L117.4,103.7 L109.9,108.9 L103.5,114.1 L98.8,119.2 L96.3,124.4 L96.3,129.6 L98.8,134.8 L103.5,139.9 L109.9,145.1 L117.4,150.3 L125.2,155.4 L132.4,160.6 L138.3,165.8 L142.3,171.0 L144.0,176.1 L143.1,181.3 L139.9,186.5 L134.5,191.7 L127.7,196.8 L120.0,202.0 L112.3,207.2 L105.5,212.3 L100.1,217.5 L96.9,222.7 L96.0,227.9 L97.7,233.0 L101.7,238.2 L107.6,243.4 L114.8,248.6 L122.6,253.7 L130.1,258.9 L136.5,264.1 L141.2,269.2 L143.7,274.4 L143.7,279.6 L141.2,284.8 L136.5,289.9 L130.1,295.1 L122.6,300.3 L114.8,305.4 L107.6,310.6 L101.7,315.8 L97.7,321.0 L96.0,326.1 L96.9,331.3 L100.1,336.5 L105.5,341.7 L112.3,346.8 L120.0,352.0" fill="none" stroke="#22d3ee" stroke-width="2.5" opacity="0.85"/>
<path d="M120.0,52.0 L112.3,57.2 L105.5,62.3 L100.1,67.5 L96.9,72.7 L96.0,77.9 L97.7,83.0 L101.7,88.2 L107.6,93.4 L114.8,98.6 L122.6,103.7 L130.1,108.9 L136.5,114.1 L141.2,119.2 L143.7,124.4 L143.7,129.6 L141.2,134.8 L136.5,139.9 L130.1,145.1 L122.6,150.3 L114.8,155.4 L107.6,160.6 L101.7,165.8 L97.7,171.0 L96.0,176.1 L96.9,181.3 L100.1,186.5 L105.5,191.7 L112.3,196.8 L120.0,202.0 L127.7,207.2 L134.5,212.3 L139.9,217.5 L143.1,222.7 L144.0,227.9 L142.3,233.0 L138.3,238.2 L132.4,243.4 L125.2,248.6 L117.4,253.7 L109.9,258.9 L103.5,264.1 L98.8,269.2 L96.3,274.4 L96.3,279.6 L98.8,284.8 L103.5,289.9 L109.9,295.1 L117.4,300.3 L125.2,305.4 L132.4,310.6 L138.3,315.8 L142.3,321.0 L144.0,326.1 L143.1,331.3 L139.9,336.5 L134.5,341.7 L127.7,346.8 L120.0,352.0" fill="none" stroke="#8b5cf6" stroke-width="2.5" opacity="0.85"/>
<line x1="120.0" y1="52.0" x2="120.0" y2="52.0" stroke="#22d3ee" stroke-width="1.6" opacity="0.5"/>
<line x1="139.9" y1="67.5" x2="100.1" y2="67.5" stroke="#8b5cf6" stroke-width="1.6" opacity="0.5"/>
<line x1="142.3" y1="83.0" x2="97.7" y2="83.0" stroke="#22d3ee" stroke-width="1.6" opacity="0.5"/>
<line x1="125.2" y1="98.6" x2="114.8" y2="98.6" stroke="#8b5cf6" stroke-width="1.6" opacity="0.5"/>
<line x1="103.5" y1="114.1" x2="136.5" y2="114.1" stroke="#22d3ee" stroke-width="1.6" opacity="0.5"/>
<line x1="96.3" y1="129.6" x2="143.7" y2="129.6" stroke="#8b5cf6" stroke-width="1.6" opacity="0.5"/>
<line x1="109.9" y1="145.1" x2="130.1" y2="145.1" stroke="#22d3ee" stroke-width="1.6" opacity="0.5"/>
<line x1="132.4" y1="160.6" x2="107.6" y2="160.6" stroke="#8b5cf6" stroke-width="1.6" opacity="0.5"/>
<line x1="144.0" y1="176.1" x2="96.0" y2="176.1" stroke="#22d3ee" stroke-width="1.6" opacity="0.5"/>
<line x1="134.5" y1="191.7" x2="105.5" y2="191.7" stroke="#8b5cf6" stroke-width="1.6" opacity="0.5"/>
<line x1="112.3" y1="207.2" x2="127.7" y2="207.2" stroke="#22d3ee" stroke-width="1.6" opacity="0.5"/>
<line x1="96.9" y1="222.7" x2="143.1" y2="222.7" stroke="#8b5cf6" stroke-width="1.6" opacity="0.5"/>
<line x1="101.7" y1="238.2" x2="138.3" y2="238.2" stroke="#22d3ee" stroke-width="1.6" opacity="0.5"/>
<line x1="122.6" y1="253.7" x2="117.4" y2="253.7" stroke="#8b5cf6" stroke-width="1.6" opacity="0.5"/>
<line x1="141.2" y1="269.2" x2="98.8" y2="269.2" stroke="#22d3ee" stroke-width="1.6" opacity="0.5"/>
<line x1="141.2" y1="284.8" x2="98.8" y2="284.8" stroke="#8b5cf6" stroke-width="1.6" opacity="0.5"/>
<line x1="122.6" y1="300.3" x2="117.4" y2="300.3" stroke="#22d3ee" stroke-width="1.6" opacity="0.5"/>
<line x1="101.7" y1="315.8" x2="138.3" y2="315.8" stroke="#8b5cf6" stroke-width="1.6" opacity="0.5"/>
<line x1="96.9" y1="331.3" x2="143.1" y2="331.3" stroke="#22d3ee" stroke-width="1.6" opacity="0.5"/>
<line x1="112.3" y1="346.8" x2="127.7" y2="346.8" stroke="#8b5cf6" stroke-width="1.6" opacity="0.5"/>
<circle r="4" fill="#e0fbff"><animateMotion dur="6s" repeatCount="indefinite" path="M120.0,52.0 L127.7,57.2 L134.5,62.3 L139.9,67.5 L143.1,72.7 L144.0,77.9 L142.3,83.0 L138.3,88.2 L132.4,93.4 L125.2,98.6 L117.4,103.7 L109.9,108.9 L103.5,114.1 L98.8,119.2 L96.3,124.4 L96.3,129.6 L98.8,134.8 L103.5,139.9 L109.9,145.1 L117.4,150.3 L125.2,155.4 L132.4,160.6 L138.3,165.8 L142.3,171.0 L144.0,176.1 L143.1,181.3 L139.9,186.5 L134.5,191.7 L127.7,196.8 L120.0,202.0 L112.3,207.2 L105.5,212.3 L100.1,217.5 L96.9,222.7 L96.0,227.9 L97.7,233.0 L101.7,238.2 L107.6,243.4 L114.8,248.6 L122.6,253.7 L130.1,258.9 L136.5,264.1 L141.2,269.2 L143.7,274.4 L143.7,279.6 L141.2,284.8 L136.5,289.9 L130.1,295.1 L122.6,300.3 L114.8,305.4 L107.6,310.6 L101.7,315.8 L97.7,321.0 L96.0,326.1 L96.9,331.3 L100.1,336.5 L105.5,341.7 L112.3,346.8 L120.0,352.0"/></circle>
<path d="M1080.0,52.0 L1072.3,57.2 L1065.5,62.3 L1060.1,67.5 L1056.9,72.7 L1056.0,77.9 L1057.7,83.0 L1061.7,88.2 L1067.6,93.4 L1074.8,98.6 L1082.6,103.7 L1090.1,108.9 L1096.5,114.1 L1101.2,119.2 L1103.7,124.4 L1103.7,129.6 L1101.2,134.8 L1096.5,139.9 L1090.1,145.1 L1082.6,150.3 L1074.8,155.4 L1067.6,160.6 L1061.7,165.8 L1057.7,171.0 L1056.0,176.1 L1056.9,181.3 L1060.1,186.5 L1065.5,191.7 L1072.3,196.8 L1080.0,202.0 L1087.7,207.2 L1094.5,212.3 L1099.9,217.5 L1103.1,222.7 L1104.0,227.9 L1102.3,233.0 L1098.3,238.2 L1092.4,243.4 L1085.2,248.6 L1077.4,253.7 L1069.9,258.9 L1063.5,264.1 L1058.8,269.2 L1056.3,274.4 L1056.3,279.6 L1058.8,284.8 L1063.5,289.9 L1069.9,295.1 L1077.4,300.3 L1085.2,305.4 L1092.4,310.6 L1098.3,315.8 L1102.3,321.0 L1104.0,326.1 L1103.1,331.3 L1099.9,336.5 L1094.5,341.7 L1087.7,346.8 L1080.0,352.0" fill="none" stroke="#8b5cf6" stroke-width="2.5" opacity="0.85"/>
<path d="M1080.0,52.0 L1087.7,57.2 L1094.5,62.3 L1099.9,67.5 L1103.1,72.7 L1104.0,77.9 L1102.3,83.0 L1098.3,88.2 L1092.4,93.4 L1085.2,98.6 L1077.4,103.7 L1069.9,108.9 L1063.5,114.1 L1058.8,119.2 L1056.3,124.4 L1056.3,129.6 L1058.8,134.8 L1063.5,139.9 L1069.9,145.1 L1077.4,150.3 L1085.2,155.4 L1092.4,160.6 L1098.3,165.8 L1102.3,171.0 L1104.0,176.1 L1103.1,181.3 L1099.9,186.5 L1094.5,191.7 L1087.7,196.8 L1080.0,202.0 L1072.3,207.2 L1065.5,212.3 L1060.1,217.5 L1056.9,222.7 L1056.0,227.9 L1057.7,233.0 L1061.7,238.2 L1067.6,243.4 L1074.8,248.6 L1082.6,253.7 L1090.1,258.9 L1096.5,264.1 L1101.2,269.2 L1103.7,274.4 L1103.7,279.6 L1101.2,284.8 L1096.5,289.9 L1090.1,295.1 L1082.6,300.3 L1074.8,305.4 L1067.6,310.6 L1061.7,315.8 L1057.7,321.0 L1056.0,326.1 L1056.9,331.3 L1060.1,336.5 L1065.5,341.7 L1072.3,346.8 L1080.0,352.0" fill="none" stroke="#22d3ee" stroke-width="2.5" opacity="0.85"/>
<line x1="1080.0" y1="52.0" x2="1080.0" y2="52.0" stroke="#8b5cf6" stroke-width="1.6" opacity="0.5"/>
<line x1="1060.1" y1="67.5" x2="1099.9" y2="67.5" stroke="#22d3ee" stroke-width="1.6" opacity="0.5"/>
<line x1="1057.7" y1="83.0" x2="1102.3" y2="83.0" stroke="#8b5cf6" stroke-width="1.6" opacity="0.5"/>
<line x1="1074.8" y1="98.6" x2="1085.2" y2="98.6" stroke="#22d3ee" stroke-width="1.6" opacity="0.5"/>
<line x1="1096.5" y1="114.1" x2="1063.5" y2="114.1" stroke="#8b5cf6" stroke-width="1.6" opacity="0.5"/>
<line x1="1103.7" y1="129.6" x2="1056.3" y2="129.6" stroke="#22d3ee" stroke-width="1.6" opacity="0.5"/>
<line x1="1090.1" y1="145.1" x2="1069.9" y2="145.1" stroke="#8b5cf6" stroke-width="1.6" opacity="0.5"/>
<line x1="1067.6" y1="160.6" x2="1092.4" y2="160.6" stroke="#22d3ee" stroke-width="1.6" opacity="0.5"/>
<line x1="1056.0" y1="176.1" x2="1104.0" y2="176.1" stroke="#8b5cf6" stroke-width="1.6" opacity="0.5"/>
<line x1="1065.5" y1="191.7" x2="1094.5" y2="191.7" stroke="#22d3ee" stroke-width="1.6" opacity="0.5"/>
<line x1="1087.7" y1="207.2" x2="1072.3" y2="207.2" stroke="#8b5cf6" stroke-width="1.6" opacity="0.5"/>
<line x1="1103.1" y1="222.7" x2="1056.9" y2="222.7" stroke="#22d3ee" stroke-width="1.6" opacity="0.5"/>
<line x1="1098.3" y1="238.2" x2="1061.7" y2="238.2" stroke="#8b5cf6" stroke-width="1.6" opacity="0.5"/>
<line x1="1077.4" y1="253.7" x2="1082.6" y2="253.7" stroke="#22d3ee" stroke-width="1.6" opacity="0.5"/>
<line x1="1058.8" y1="269.2" x2="1101.2" y2="269.2" stroke="#8b5cf6" stroke-width="1.6" opacity="0.5"/>
<line x1="1058.8" y1="284.8" x2="1101.2" y2="284.8" stroke="#22d3ee" stroke-width="1.6" opacity="0.5"/>
<line x1="1077.4" y1="300.3" x2="1082.6" y2="300.3" stroke="#8b5cf6" stroke-width="1.6" opacity="0.5"/>
<line x1="1098.3" y1="315.8" x2="1061.7" y2="315.8" stroke="#22d3ee" stroke-width="1.6" opacity="0.5"/>
<line x1="1103.1" y1="331.3" x2="1056.9" y2="331.3" stroke="#8b5cf6" stroke-width="1.6" opacity="0.5"/>
<line x1="1087.7" y1="346.8" x2="1072.3" y2="346.8" stroke="#22d3ee" stroke-width="1.6" opacity="0.5"/>
<circle r="4" fill="#e0fbff"><animateMotion dur="6s" repeatCount="indefinite" path="M1080.0,52.0 L1072.3,57.2 L1065.5,62.3 L1060.1,67.5 L1056.9,72.7 L1056.0,77.9 L1057.7,83.0 L1061.7,88.2 L1067.6,93.4 L1074.8,98.6 L1082.6,103.7 L1090.1,108.9 L1096.5,114.1 L1101.2,119.2 L1103.7,124.4 L1103.7,129.6 L1101.2,134.8 L1096.5,139.9 L1090.1,145.1 L1082.6,150.3 L1074.8,155.4 L1067.6,160.6 L1061.7,165.8 L1057.7,171.0 L1056.0,176.1 L1056.9,181.3 L1060.1,186.5 L1065.5,191.7 L1072.3,196.8 L1080.0,202.0 L1087.7,207.2 L1094.5,212.3 L1099.9,217.5 L1103.1,222.7 L1104.0,227.9 L1102.3,233.0 L1098.3,238.2 L1092.4,243.4 L1085.2,248.6 L1077.4,253.7 L1069.9,258.9 L1063.5,264.1 L1058.8,269.2 L1056.3,274.4 L1056.3,279.6 L1058.8,284.8 L1063.5,289.9 L1069.9,295.1 L1077.4,300.3 L1085.2,305.4 L1092.4,310.6 L1098.3,315.8 L1102.3,321.0 L1104.0,326.1 L1103.1,331.3 L1099.9,336.5 L1094.5,341.7 L1087.7,346.8 L1080.0,352.0"/></circle>
</svg>